<svg width="1920" height="781" viewBox="0 0 1920 781" fill="none" xmlns="http://www.w3.org/2000/svg">
<g clip-path="url(#clip0_289_3134)">
<rect width="1920" height="1218" transform="translate(0 -150)" fill="#F9F3EC"/>
<path opacity="0.1" d="M390.824 -26.4359L390.815 -26.4443C361.944 -55.3662 322.514 -73 278.146 -73C234.484 -73 194.346 -55.3645 165.476 -26.4444C136.606 2.4751 119.001 42.6824 119 86.4203L390.824 -26.4359ZM390.824 -26.4359C420.397 2.48303 438 41.9778 438 86.4229C438 137.489 423.016 171.306 400.283 195.508C377.513 219.749 346.889 234.435 315.418 247.071C308.216 249.963 300.965 252.749 293.755 255.519C269.536 264.824 245.784 273.95 225.922 286.313C200.281 302.274 180.982 323.705 175.256 358L119.706 358L119 86.4229L390.824 -26.4359ZM176.523 249.685L176.523 251.63L178.105 250.498C195.352 238.158 216.68 229.101 239.062 220.619C244.603 218.519 250.21 216.453 255.833 214.382C272.881 208.103 290.077 201.769 306.031 194.246C327.262 184.235 346.415 172.067 360.258 154.986C374.12 137.881 382.603 115.915 382.603 86.4229C382.603 57.7574 371.155 31.9513 352.549 13.3132C333.943 -5.32496 308.181 -16.7935 279.563 -16.7935C250.945 -16.7935 225.183 -5.32497 206.577 13.3132C187.971 31.9513 176.523 57.7574 176.523 86.4229L176.523 86.7101L176.523 86.9976L176.523 87.2855L176.523 87.5737L176.523 87.8623L176.523 88.1512L176.523 88.4405L176.523 88.7301L176.523 89.0201L176.523 89.3104L176.523 89.6011L176.523 89.8921L176.523 90.1834L176.523 90.4751L176.523 90.7671L176.523 91.0595L176.523 91.3522L176.523 91.6452L176.523 91.9386L176.523 92.2323L176.523 92.5263L176.523 92.8207L176.523 93.1153L176.523 93.4103L176.523 93.7057L176.523 94.0013L176.523 94.2973L176.523 94.5936L176.523 94.8902L176.523 95.1872L176.523 95.4844L176.523 95.782L176.523 96.0799L176.523 96.3781L176.523 96.6766L176.523 96.9754L176.523 97.2745L176.523 97.5739L176.523 97.8737L176.523 98.1737L176.523 98.474L176.523 98.7747L176.523 99.0756L176.523 99.3769L176.523 99.6784L176.523 99.9802L176.523 100.282L176.523 100.585L176.523 100.887L176.523 101.19L176.523 101.494L176.523 101.797L176.523 102.101L176.523 102.405L176.523 102.71L176.523 103.015L176.523 103.32L176.523 103.625L176.523 103.93L176.523 104.236L176.523 104.542L176.523 104.849L176.523 105.155L176.523 105.462L176.523 105.77L176.523 106.077L176.523 106.385L176.523 106.693L176.523 107.001L176.523 107.31L176.523 107.618L176.523 107.927L176.523 108.237L176.523 108.546L176.523 108.856L176.523 109.166L176.523 109.477L176.523 109.787L176.523 110.098L176.523 110.409L176.523 110.72L176.523 111.032L176.523 111.344L176.523 111.656L176.523 111.968L176.523 112.281L176.523 112.594L176.523 112.907L176.523 113.22L176.523 113.533L176.523 113.847L176.523 114.161L176.523 114.475L176.523 114.79L176.523 115.104L176.523 115.419L176.523 115.734L176.523 116.05L176.523 116.365L176.523 116.681L176.523 116.997L176.523 117.313L176.523 117.63L176.523 117.946L176.523 118.263L176.523 118.58L176.523 118.898L176.523 119.215L176.523 119.533L176.523 119.851L176.523 120.169L176.523 120.487L176.523 120.806L176.523 121.125L176.523 121.444L176.523 121.763L176.523 122.082L176.523 122.402L176.523 122.722L176.523 123.042L176.523 123.362L176.523 123.682L176.523 124.003L176.523 124.323L176.523 124.644L176.523 124.965L176.523 125.287L176.523 125.608L176.523 125.93L176.523 126.252L176.523 126.574L176.523 126.896L176.523 127.218L176.523 127.541L176.523 127.863L176.523 128.186L176.523 128.509L176.523 128.833L176.523 129.156L176.523 129.48L176.523 129.803L176.523 130.127L176.523 130.451L176.523 130.775L176.523 131.1L176.523 131.424L176.523 131.749L176.523 132.074L176.523 132.399L176.523 132.724L176.523 133.049L176.523 133.375L176.523 133.701L176.523 134.026L176.523 134.352L176.523 134.678L176.523 135.005L176.523 135.331L176.523 135.657L176.523 135.984L176.523 136.311L176.523 136.638L176.523 136.965L176.523 137.292L176.523 137.619L176.523 137.947L176.523 138.274L176.523 138.602L176.523 138.93L176.523 139.258L176.523 139.586L176.523 139.914L176.523 140.243L176.523 140.571L176.523 140.9L176.523 141.228L176.523 141.557L176.523 141.886L176.523 142.215L176.523 142.544L176.523 142.874L176.523 143.203L176.523 143.532L176.523 143.862L176.523 144.192L176.523 144.522L176.523 144.851L176.523 145.181L176.523 145.512L176.523 145.842L176.523 146.172L176.523 146.503L176.523 146.833L176.523 147.164L176.523 147.494L176.523 147.825L176.523 148.156L176.523 148.487L176.523 148.818L176.523 149.149L176.523 149.48L176.523 149.812L176.523 150.143L176.523 150.475L176.523 150.806L176.523 151.138L176.523 151.469L176.523 151.801L176.523 152.133L176.523 152.465L176.523 152.797L176.523 153.129L176.523 153.461L176.523 153.793L176.523 154.126L176.523 154.458L176.523 154.79L176.523 155.123L176.523 155.455L176.523 155.788L176.523 156.12L176.523 156.453L176.523 156.786L176.523 157.119L176.523 157.452L176.523 157.784L176.523 158.117L176.523 158.45L176.523 158.783L176.523 159.116L176.523 159.45L176.523 159.783L176.523 160.116L176.523 160.449L176.523 160.782L176.523 161.116L176.523 161.449L176.523 161.783L176.523 162.116L176.523 162.449L176.523 162.783L176.523 163.116L176.523 163.45L176.523 163.784L176.523 164.117L176.523 164.451L176.523 164.784L176.523 165.118L176.523 165.452L176.523 165.785L176.523 166.119L176.523 166.453L176.523 166.787L176.523 167.12L176.523 167.454L176.523 167.788L176.523 168.122L176.523 168.455L176.523 168.789L176.523 169.123L176.523 169.457L176.523 169.791L176.523 170.124L176.523 170.458L176.523 170.792L176.523 171.126L176.523 171.46L176.523 171.793L176.523 172.127L176.523 172.461L176.523 172.795L176.523 173.128L176.523 173.462L176.523 173.796L176.523 174.13L176.523 174.463L176.523 174.797L176.523 175.13L176.523 175.464L176.523 175.798L176.523 176.131L176.523 176.465L176.523 176.798L176.523 177.132L176.523 177.465L176.523 177.799L176.523 178.132L176.523 178.465L176.523 178.799L176.523 179.132L176.523 179.465L176.523 179.798L176.523 180.132L176.523 180.465L176.523 180.798L176.523 181.131L176.523 181.464L176.523 181.797L176.523 182.13L176.523 182.463L176.523 182.795L176.523 183.128L176.523 183.461L176.523 183.793L176.523 184.126L176.523 184.458L176.523 184.791L176.523 185.123L176.523 185.456L176.523 185.788L176.523 186.12L176.523 186.452L176.523 186.784L176.523 187.116L176.523 187.448L176.523 187.78L176.523 188.112L176.523 188.443L176.523 188.775L176.523 189.107L176.523 189.438L176.523 189.769L176.523 190.101L176.523 190.432L176.523 190.763L176.523 191.094L176.523 191.425L176.523 191.756L176.523 192.087L176.523 192.417L176.523 192.748L176.523 193.078L176.523 193.409L176.523 193.739L176.523 194.069L176.523 194.399L176.523 194.729L176.523 195.059L176.523 195.389L176.523 195.719L176.523 196.048L176.523 196.378L176.523 196.707L176.523 197.037L176.523 197.366L176.523 197.695L176.523 198.024L176.523 198.353L176.523 198.681L176.523 199.01L176.523 199.338L176.523 199.667L176.523 199.995L176.523 200.323L176.523 200.651L176.523 200.979L176.523 201.306L176.523 201.634L176.523 201.961L176.523 202.289L176.523 202.616L176.523 202.943L176.523 203.27L176.523 203.597L176.523 203.923L176.523 204.25L176.523 204.576L176.523 204.902L176.523 205.228L176.523 205.554L176.523 205.88L176.523 206.206L176.523 206.531L176.523 206.856L176.523 207.181L176.523 207.506L176.523 207.831L176.523 208.156L176.523 208.481L176.523 208.805L176.523 209.129L176.523 209.453L176.523 209.777L176.523 210.101L176.523 210.424L176.523 210.748L176.523 211.071L176.523 211.394L176.523 211.717L176.523 212.04L176.523 212.362L176.523 212.684L176.523 213.007L176.523 213.329L176.523 213.65L176.523 213.972L176.523 214.293L176.523 214.615L176.523 214.936L176.523 215.257L176.523 215.577L176.523 215.898L176.523 216.218L176.523 216.538L176.523 216.858L176.523 217.178L176.523 217.498L176.523 217.817L176.523 218.136L176.523 218.455L176.523 218.774L176.523 219.092L176.523 219.411L176.523 219.729L176.523 220.047L176.523 220.364L176.523 220.682L176.523 220.999L176.523 221.316L176.523 221.633L176.523 221.95L176.523 222.266L176.523 222.582L176.523 222.898L176.523 223.214L176.523 223.53L176.523 223.845L176.523 224.16L176.523 224.475L176.523 224.79L176.523 225.104L176.523 225.418L176.523 225.732L176.523 226.046L176.523 226.36L176.523 226.673L176.523 226.986L176.523 227.299L176.523 227.611L176.523 227.923L176.523 228.235L176.523 228.547L176.523 228.859L176.523 229.17L176.523 229.481L176.523 229.792L176.523 230.103L176.523 230.413L176.523 230.723L176.523 231.033L176.523 231.342L176.523 231.652L176.523 231.961L176.523 232.269L176.523 232.578L176.523 232.886L176.523 233.194L176.523 233.502L176.523 233.809L176.523 234.116L176.523 234.423L176.523 234.73L176.523 235.036L176.523 235.342L176.523 235.648L176.523 235.954L176.523 236.259L176.523 236.564L176.523 236.869L176.523 237.173L176.523 237.477L176.523 237.781L176.523 238.085L176.523 238.388L176.523 238.691L176.523 238.994L176.523 239.296L176.523 239.598L176.523 239.9L176.523 240.201L176.523 240.503L176.523 240.804L176.523 241.104L176.523 241.404L176.523 241.704L176.523 242.004L176.523 242.304L176.523 242.603L176.523 242.901L176.523 243.2L176.523 243.498L176.523 243.796L176.523 244.093L176.523 244.391L176.523 244.688L176.523 244.984L176.523 245.28L176.523 245.576L176.523 245.872L176.523 246.167L176.523 246.462L176.523 246.757L176.523 247.051L176.523 247.345L176.523 247.639L176.523 247.932L176.523 248.225L176.523 248.518L176.523 248.81L176.523 249.102L176.523 249.394L176.523 249.685Z" stroke="#1C2A4D" stroke-width="2"/>
<path opacity="0.1" d="M334.619 567.998L334.628 567.989C404.771 497.799 500.572 455.001 608.358 455.001C714.43 455.001 811.946 497.8 882.087 567.989C952.228 638.178 994.999 735.759 995 841.903L334.619 567.998ZM334.619 567.998C262.768 638.186 220 734.047 220 841.905C220 965.695 256.374 1047.83 311.681 1106.64C367.025 1165.5 441.406 1201.11 517.608 1231.67C535.094 1238.68 552.679 1245.43 570.151 1252.14C628.749 1274.63 686.066 1296.63 734.017 1326.45C796.132 1365.07 842.674 1416.89 856.203 1500L993.287 1500L995 841.905L334.619 567.998ZM852.921 1236.68L852.921 1238.62L851.339 1237.49C809.43 1207.53 757.651 1185.58 703.467 1165.07C690.025 1159.98 676.434 1154.98 662.811 1149.96C621.562 1134.79 580.023 1119.5 541.466 1101.34C490.162 1077.18 444.019 1047.87 410.705 1006.8C377.37 965.71 356.934 912.918 356.934 841.905C356.934 772.977 384.488 710.935 429.266 666.126C474.044 621.318 536.045 593.745 604.927 593.745C673.809 593.745 735.81 621.318 780.588 666.126C825.366 710.935 852.921 772.977 852.921 841.905L852.921 842.6L852.921 843.295L852.921 843.991L852.921 844.688L852.921 845.386L852.921 846.084L852.921 846.784L852.921 847.484L852.921 848.185L852.921 848.887L852.921 849.59L852.921 850.294L852.921 850.998L852.921 851.704L852.921 852.41L852.921 853.117L852.921 853.824L852.921 854.533L852.921 855.242L852.921 855.952L852.921 856.663L852.921 857.375L852.921 858.088L852.921 858.801L852.921 859.515L852.921 860.23L852.921 860.946L852.921 861.662L852.921 862.379L852.921 863.097L852.921 863.816L852.921 864.536L852.921 865.256L852.921 865.977L852.921 866.699L852.921 867.421L852.921 868.145L852.921 868.869L852.921 869.593L852.921 870.319L852.921 871.045L852.921 871.772L852.921 872.5L852.921 873.228L852.921 873.957L852.921 874.687L852.921 875.418L852.921 876.149L852.921 876.881L852.921 877.614L852.921 878.347L852.921 879.081L852.921 879.816L852.921 880.551L852.921 881.287L852.921 882.024L852.921 882.762L852.921 883.5L852.921 884.239L852.921 884.978L852.921 885.718L852.921 886.459L852.921 887.201L852.921 887.943L852.921 888.686L852.921 889.429L852.921 890.173L852.921 890.918L852.921 891.663L852.921 892.409L852.921 893.156L852.921 893.903L852.921 894.651L852.921 895.4L852.921 896.149L852.921 896.899L852.921 897.649L852.921 898.4L852.921 899.152L852.921 899.904L852.921 900.657L852.921 901.41L852.921 902.164L852.921 902.919L852.921 903.674L852.921 904.43L852.921 905.186L852.921 905.943L852.921 906.701L852.921 907.459L852.921 908.217L852.921 908.977L852.921 909.736L852.921 910.497L852.921 911.258L852.921 912.019L852.921 912.781L852.921 913.543L852.921 914.306L852.921 915.07L852.921 915.834L852.921 916.599L852.921 917.364L852.921 918.13L852.921 918.896L852.921 919.663L852.921 920.43L852.921 921.198L852.921 921.966L852.921 922.735L852.921 923.504L852.921 924.274L852.921 925.044L852.921 925.815L852.921 926.586L852.921 927.358L852.921 928.13L852.921 928.903L852.921 929.676L852.921 930.45L852.921 931.224L852.921 931.999L852.921 932.774L852.921 933.549L852.921 934.325L852.921 935.101L852.921 935.878L852.921 936.656L852.921 937.433L852.921 938.212L852.921 938.99L852.921 939.769L852.921 940.549L852.921 941.329L852.921 942.109L852.921 942.89L852.921 943.671L852.921 944.453L852.921 945.235L852.921 946.017L852.921 946.8L852.921 947.583L852.921 948.366L852.921 949.15L852.921 949.935L852.921 950.72L852.921 951.505L852.921 952.29L852.921 953.076L852.921 953.862L852.921 954.649L852.921 955.436L852.921 956.223L852.921 957.011L852.921 957.799L852.921 958.588L852.921 959.376L852.921 960.166L852.921 960.955L852.921 961.745L852.921 962.535L852.921 963.326L852.921 964.116L852.921 964.907L852.921 965.699L852.921 966.491L852.921 967.283L852.921 968.075L852.921 968.868L852.921 969.661L852.921 970.454L852.921 971.248L852.921 972.042L852.921 972.836L852.921 973.631L852.921 974.425L852.921 975.221L852.921 976.016L852.921 976.812L852.921 977.607L852.921 978.404L852.921 979.2L852.921 979.997L852.921 980.794L852.921 981.591L852.921 982.389L852.921 983.186L852.921 983.984L852.921 984.782L852.921 985.581L852.921 986.38L852.921 987.179L852.921 987.978L852.921 988.777L852.921 989.577L852.921 990.377L852.921 991.177L852.921 991.977L852.921 992.778L852.921 993.578L852.921 994.379L852.921 995.18L852.921 995.982L852.921 996.783L852.921 997.585L852.921 998.387L852.921 999.189L852.921 999.991L852.921 1000.79L852.921 1001.6L852.921 1002.4L852.921 1003.2L852.921 1004L852.921 1004.81L852.921 1005.61L852.921 1006.41L852.921 1007.22L852.921 1008.02L852.921 1008.83L852.921 1009.63L852.921 1010.43L852.921 1011.24L852.921 1012.04L852.921 1012.85L852.921 1013.65L852.921 1014.46L852.921 1015.26L852.921 1016.07L852.921 1016.87L852.921 1017.68L852.921 1018.48L852.921 1019.29L852.921 1020.1L852.921 1020.9L852.921 1021.71L852.921 1022.51L852.921 1023.32L852.921 1024.13L852.921 1024.93L852.921 1025.74L852.921 1026.54L852.921 1027.35L852.921 1028.16L852.921 1028.96L852.921 1029.77L852.921 1030.58L852.921 1031.38L852.921 1032.19L852.921 1033L852.921 1033.8L852.921 1034.61L852.921 1035.42L852.921 1036.23L852.921 1037.03L852.921 1037.84L852.921 1038.65L852.921 1039.45L852.921 1040.26L852.921 1041.07L852.921 1041.88L852.921 1042.68L852.921 1043.49L852.921 1044.3L852.921 1045.1L852.921 1045.91L852.921 1046.72L852.921 1047.53L852.921 1048.33L852.921 1049.14L852.921 1049.95L852.921 1050.75L852.921 1051.56L852.921 1052.37L852.921 1053.17L852.921 1053.98L852.921 1054.79L852.921 1055.59L852.921 1056.4L852.921 1057.21L852.921 1058.01L852.921 1058.82L852.921 1059.63L852.921 1060.43L852.921 1061.24L852.921 1062.05L852.921 1062.85L852.921 1063.66L852.921 1064.47L852.921 1065.27L852.921 1066.08L852.921 1066.88L852.921 1067.69L852.921 1068.49L852.921 1069.3L852.921 1070.11L852.921 1070.91L852.921 1071.72L852.921 1072.52L852.921 1073.33L852.921 1074.13L852.921 1074.94L852.921 1075.74L852.921 1076.54L852.921 1077.35L852.921 1078.15L852.921 1078.96L852.921 1079.76L852.921 1080.56L852.921 1081.37L852.921 1082.17L852.921 1082.97L852.921 1083.78L852.921 1084.58L852.921 1085.38L852.921 1086.19L852.921 1086.99L852.921 1087.79L852.921 1088.59L852.921 1089.39L852.921 1090.2L852.921 1091L852.921 1091.8L852.921 1092.6L852.921 1093.4L852.921 1094.2L852.921 1095L852.921 1095.8L852.921 1096.6L852.921 1097.4L852.921 1098.2L852.921 1099L852.921 1099.8L852.921 1100.6L852.921 1101.4L852.921 1102.2L852.921 1102.99L852.921 1103.79L852.921 1104.59L852.921 1105.39L852.921 1106.18L852.921 1106.98L852.921 1107.78L852.921 1108.57L852.921 1109.37L852.921 1110.17L852.921 1110.96L852.921 1111.76L852.921 1112.55L852.921 1113.35L852.921 1114.14L852.921 1114.94L852.921 1115.73L852.921 1116.52L852.921 1117.32L852.921 1118.11L852.921 1118.9L852.921 1119.7L852.921 1120.49L852.921 1121.28L852.921 1122.07L852.921 1122.86L852.921 1123.65L852.921 1124.44L852.921 1125.23L852.921 1126.02L852.921 1126.81L852.921 1127.6L852.921 1128.39L852.921 1129.18L852.921 1129.97L852.921 1130.75L852.921 1131.54L852.921 1132.33L852.921 1133.11L852.921 1133.9L852.921 1134.69L852.921 1135.47L852.921 1136.26L852.921 1137.04L852.921 1137.83L852.921 1138.61L852.921 1139.39L852.921 1140.18L852.921 1140.96L852.921 1141.74L852.921 1142.52L852.921 1143.31L852.921 1144.09L852.921 1144.87L852.921 1145.65L852.921 1146.43L852.921 1147.21L852.921 1147.99L852.921 1148.77L852.921 1149.54L852.921 1150.32L852.921 1151.1L852.921 1151.87L852.921 1152.65L852.921 1153.43L852.921 1154.2L852.921 1154.98L852.921 1155.75L852.921 1156.53L852.921 1157.3L852.921 1158.07L852.921 1158.85L852.921 1159.62L852.921 1160.39L852.921 1161.16L852.921 1161.93L852.921 1162.7L852.921 1163.47L852.921 1164.24L852.921 1165.01L852.921 1165.78L852.921 1166.55L852.921 1167.31L852.921 1168.08L852.921 1168.85L852.921 1169.61L852.921 1170.38L852.921 1171.14L852.921 1171.91L852.921 1172.67L852.921 1173.43L852.921 1174.19L852.921 1174.96L852.921 1175.72L852.921 1176.48L852.921 1177.24L852.921 1178L852.921 1178.76L852.921 1179.52L852.921 1180.27L852.921 1181.03L852.921 1181.79L852.921 1182.54L852.921 1183.3L852.921 1184.06L852.921 1184.81L852.921 1185.56L852.921 1186.32L852.921 1187.07L852.921 1187.82L852.921 1188.57L852.921 1189.32L852.921 1190.08L852.921 1190.82L852.921 1191.57L852.921 1192.32L852.921 1193.07L852.921 1193.82L852.921 1194.56L852.921 1195.31L852.921 1196.06L852.921 1196.8L852.921 1197.54L852.921 1198.29L852.921 1199.03L852.921 1199.77L852.921 1200.51L852.921 1201.25L852.921 1201.99L852.921 1202.73L852.921 1203.47L852.921 1204.21L852.921 1204.95L852.921 1205.69L852.921 1206.42L852.921 1207.16L852.921 1207.89L852.921 1208.63L852.921 1209.36L852.921 1210.09L852.921 1210.82L852.921 1211.55L852.921 1212.28L852.921 1213.01L852.921 1213.74L852.921 1214.47L852.921 1215.2L852.921 1215.93L852.921 1216.65L852.921 1217.38L852.921 1218.1L852.921 1218.83L852.921 1219.55L852.921 1220.27L852.921 1220.99L852.921 1221.72L852.921 1222.44L852.921 1223.15L852.921 1223.87L852.921 1224.59L852.921 1225.31L852.921 1226.03L852.921 1226.74L852.921 1227.46L852.921 1228.17L852.921 1228.88L852.921 1229.6L852.921 1230.31L852.921 1231.02L852.921 1231.73L852.921 1232.44L852.921 1233.15L852.921 1233.85L852.921 1234.56L852.921 1235.27L852.921 1235.97L852.921 1236.68Z" stroke="#1C2A4D" stroke-width="2"/>
<path opacity="0.1" d="M1145.34 -256.786L1145.35 -256.794C1236.13 -347.62 1360.12 -402.999 1499.61 -402.999C1636.89 -402.999 1763.09 -347.618 1853.87 -256.795C1944.65 -165.972 2000 -39.7036 2000 97.6437L1145.34 -256.786ZM1145.34 -256.786C1052.35 -165.964 997 -41.9181 997 97.6464C997 257.798 1044.07 364.086 1115.66 440.213C1187.29 516.379 1283.55 562.44 1382.12 601.971C1404.75 611.046 1427.5 619.777 1450.1 628.451C1525.89 657.534 1599.99 685.97 1661.99 724.513C1742.34 774.469 1802.5 841.478 1819.93 949L1997.78 949L2000 97.6463L1145.34 -256.786ZM1815.64 608.171L1815.64 610.115L1814.06 608.985C1759.82 570.222 1692.82 541.82 1622.73 515.29C1605.34 508.707 1587.76 502.238 1570.13 495.755C1516.78 476.129 1463.07 456.369 1413.21 432.889C1346.87 401.646 1287.24 363.764 1244.19 310.706C1201.12 257.624 1174.7 189.42 1174.7 97.6463C1174.7 8.58702 1210.31 -71.5733 1268.17 -129.467C1326.04 -187.361 1406.16 -222.986 1495.17 -222.986C1584.19 -222.987 1664.31 -187.361 1722.17 -129.467C1780.04 -71.5734 1815.64 8.58696 1815.64 97.6463L1815.64 98.5442L1815.64 99.4433L1815.64 100.343L1815.64 101.245L1815.64 102.147L1815.64 103.051L1815.64 103.955L1815.64 104.861L1815.64 105.768L1815.64 106.676L1815.64 107.584L1815.64 108.494L1815.64 109.405L1815.64 110.318L1815.64 111.231L1815.64 112.145L1815.64 113.06L1815.64 113.977L1815.64 114.894L1815.64 115.812L1815.64 116.732L1815.64 117.652L1815.64 118.574L1815.64 119.496L1815.64 120.42L1815.64 121.344L1815.64 122.27L1815.64 123.196L1815.64 124.124L1815.64 125.052L1815.64 125.982L1815.64 126.912L1815.64 127.844L1815.64 128.776L1815.64 129.71L1815.64 130.644L1815.64 131.579L1815.64 132.516L1815.64 133.453L1815.64 134.391L1815.64 135.33L1815.64 136.27L1815.64 137.212L1815.64 138.154L1815.64 139.096L1815.64 140.04L1815.64 140.985L1815.64 141.931L1815.64 142.877L1815.64 143.825L1815.64 144.773L1815.64 145.723L1815.64 146.673L1815.64 147.624L1815.64 148.576L1815.64 149.529L1815.64 150.482L1815.64 151.437L1815.64 152.393L1815.64 153.349L1815.64 154.306L1815.64 155.264L1815.64 156.223L1815.64 157.183L1815.64 158.144L1815.64 159.105L1815.64 160.067L1815.64 161.03L1815.64 161.994L1815.64 162.959L1815.64 163.925L1815.64 164.891L1815.64 165.858L1815.64 166.826L1815.64 167.795L1815.64 168.765L1815.64 169.735L1815.64 170.707L1815.64 171.679L1815.64 172.651L1815.64 173.625L1815.64 174.599L1815.64 175.574L1815.64 176.55L1815.64 177.527L1815.64 178.504L1815.64 179.482L1815.64 180.461L1815.64 181.441L1815.64 182.421L1815.64 183.402L1815.64 184.384L1815.64 185.367L1815.64 186.35L1815.64 187.334L1815.64 188.318L1815.64 189.304L1815.64 190.29L1815.64 191.277L1815.64 192.264L1815.64 193.252L1815.64 194.241L1815.64 195.231L1815.64 196.221L1815.64 197.212L1815.64 198.204L1815.64 199.196L1815.64 200.189L1815.64 201.182L1815.64 202.177L1815.64 203.171L1815.64 204.167L1815.64 205.163L1815.64 206.16L1815.64 207.157L1815.64 208.155L1815.64 209.154L1815.64 210.153L1815.64 211.153L1815.64 212.154L1815.64 213.155L1815.64 214.156L1815.64 215.159L1815.64 216.162L1815.64 217.165L1815.64 218.169L1815.64 219.174L1815.64 220.179L1815.64 221.185L1815.64 222.191L1815.64 223.198L1815.64 224.206L1815.64 225.214L1815.64 226.222L1815.64 227.231L1815.64 228.241L1815.64 229.251L1815.64 230.262L1815.64 231.273L1815.64 232.285L1815.64 233.298L1815.64 234.31L1815.64 235.324L1815.64 236.338L1815.64 237.352L1815.64 238.367L1815.64 239.382L1815.64 240.398L1815.64 241.414L1815.64 242.431L1815.64 243.449L1815.64 244.466L1815.64 245.485L1815.64 246.503L1815.64 247.522L1815.64 248.542L1815.64 249.562L1815.64 250.583L1815.64 251.604L1815.64 252.625L1815.64 253.647L1815.64 254.669L1815.64 255.692L1815.64 256.715L1815.64 257.739L1815.64 258.762L1815.64 259.787L1815.64 260.812L1815.64 261.837L1815.64 262.862L1815.64 263.888L1815.64 264.915L1815.64 265.941L1815.64 266.968L1815.64 267.996L1815.64 269.024L1815.64 270.052L1815.64 271.081L1815.64 272.11L1815.64 273.139L1815.64 274.168L1815.64 275.198L1815.64 276.229L1815.64 277.259L1815.64 278.29L1815.64 279.322L1815.64 280.353L1815.64 281.385L1815.64 282.418L1815.64 283.45L1815.64 284.483L1815.64 285.516L1815.64 286.55L1815.64 287.584L1815.64 288.618L1815.64 289.652L1815.64 290.687L1815.64 291.722L1815.64 292.757L1815.64 293.792L1815.64 294.828L1815.64 295.864L1815.64 296.9L1815.64 297.937L1815.64 298.974L1815.64 300.011L1815.64 301.048L1815.64 302.085L1815.64 303.123L1815.64 304.161L1815.64 305.199L1815.64 306.238L1815.64 307.276L1815.64 308.315L1815.64 309.354L1815.64 310.393L1815.64 311.433L1815.64 312.472L1815.64 313.512L1815.64 314.552L1815.64 315.592L1815.64 316.632L1815.64 317.673L1815.64 318.713L1815.64 319.754L1815.64 320.795L1815.64 321.836L1815.64 322.878L1815.64 323.919L1815.64 324.96L1815.64 326.002L1815.64 327.044L1815.64 328.086L1815.64 329.128L1815.64 330.17L1815.64 331.213L1815.64 332.255L1815.64 333.297L1815.64 334.34L1815.64 335.383L1815.64 336.426L1815.64 337.469L1815.64 338.512L1815.64 339.555L1815.64 340.598L1815.64 341.641L1815.64 342.684L1815.64 343.728L1815.64 344.771L1815.64 345.815L1815.64 346.858L1815.64 347.902L1815.64 348.945L1815.64 349.989L1815.64 351.033L1815.64 352.076L1815.64 353.12L1815.64 354.164L1815.64 355.208L1815.64 356.251L1815.64 357.295L1815.64 358.339L1815.64 359.383L1815.64 360.426L1815.64 361.47L1815.64 362.514L1815.64 363.558L1815.64 364.601L1815.64 365.645L1815.64 366.689L1815.64 367.733L1815.64 368.776L1815.64 369.82L1815.64 370.863L1815.64 371.907L1815.64 372.95L1815.64 373.993L1815.64 375.037L1815.64 376.08L1815.64 377.123L1815.64 378.166L1815.64 379.209L1815.64 380.252L1815.64 381.295L1815.64 382.338L1815.64 383.38L1815.64 384.423L1815.64 385.465L1815.64 386.507L1815.64 387.55L1815.64 388.592L1815.64 389.634L1815.64 390.675L1815.64 391.717L1815.64 392.759L1815.64 393.8L1815.64 394.841L1815.64 395.882L1815.64 396.923L1815.64 397.964L1815.64 399.005L1815.64 400.045L1815.64 401.085L1815.64 402.126L1815.64 403.165L1815.64 404.205L1815.64 405.245L1815.64 406.284L1815.64 407.323L1815.64 408.362L1815.64 409.401L1815.64 410.44L1815.64 411.478L1815.64 412.516L1815.64 413.554L1815.64 414.592L1815.64 415.629L1815.64 416.666L1815.64 417.703L1815.64 418.74L1815.64 419.777L1815.64 420.813L1815.64 421.849L1815.64 422.885L1815.64 423.92L1815.64 424.955L1815.64 425.99L1815.64 427.025L1815.64 428.059L1815.64 429.093L1815.64 430.127L1815.64 431.16L1815.64 432.194L1815.64 433.226L1815.64 434.259L1815.64 435.291L1815.64 436.323L1815.64 437.355L1815.64 438.386L1815.64 439.417L1815.64 440.448L1815.64 441.478L1815.64 442.508L1815.64 443.538L1815.64 444.567L1815.64 445.596L1815.64 446.624L1815.64 447.652L1815.64 448.68L1815.64 449.708L1815.64 450.735L1815.64 451.762L1815.64 452.788L1815.64 453.814L1815.64 454.839L1815.64 455.864L1815.64 456.889L1815.64 457.913L1815.64 458.937L1815.64 459.961L1815.64 460.984L1815.64 462.007L1815.64 463.029L1815.64 464.051L1815.64 465.072L1815.64 466.093L1815.64 467.113L1815.64 468.133L1815.64 469.153L1815.64 470.172L1815.64 471.191L1815.64 472.209L1815.64 473.227L1815.64 474.244L1815.64 475.261L1815.64 476.277L1815.64 477.293L1815.64 478.308L1815.64 479.323L1815.64 480.337L1815.64 481.351L1815.64 482.364L1815.64 483.377L1815.64 484.39L1815.64 485.401L1815.64 486.412L1815.64 487.423L1815.64 488.433L1815.64 489.443L1815.64 490.452L1815.64 491.461L1815.64 492.469L1815.64 493.476L1815.64 494.483L1815.64 495.489L1815.64 496.495L1815.64 497.5L1815.64 498.505L1815.64 499.509L1815.64 500.512L1815.64 501.515L1815.64 502.517L1815.64 503.519L1815.64 504.52L1815.64 505.521L1815.64 506.52L1815.64 507.52L1815.64 508.518L1815.64 509.516L1815.64 510.514L1815.64 511.51L1815.64 512.506L1815.64 513.502L1815.64 514.497L1815.64 515.491L1815.64 516.484L1815.64 517.477L1815.64 518.469L1815.64 519.461L1815.64 520.452L1815.64 521.442L1815.64 522.431L1815.64 523.42L1815.64 524.408L1815.64 525.396L1815.64 526.382L1815.64 527.368L1815.64 528.354L1815.64 529.338L1815.64 530.322L1815.64 531.306L1815.64 532.288L1815.64 533.27L1815.64 534.251L1815.64 535.231L1815.64 536.211L1815.64 537.189L1815.64 538.167L1815.64 539.145L1815.64 540.121L1815.64 541.097L1815.64 542.072L1815.64 543.046L1815.64 544.02L1815.64 544.993L1815.64 545.964L1815.64 546.936L1815.64 547.906L1815.64 548.876L1815.64 549.844L1815.64 550.812L1815.64 551.779L1815.64 552.746L1815.64 553.711L1815.64 554.676L1815.64 555.64L1815.64 556.603L1815.64 557.565L1815.64 558.526L1815.64 559.487L1815.64 560.447L1815.64 561.406L1815.64 562.364L1815.64 563.321L1815.64 564.277L1815.64 565.232L1815.64 566.187L1815.64 567.141L1815.64 568.093L1815.64 569.045L1815.64 569.996L1815.64 570.946L1815.64 571.896L1815.64 572.844L1815.64 573.791L1815.64 574.738L1815.64 575.683L1815.64 576.628L1815.64 577.572L1815.64 578.515L1815.64 579.457L1815.64 580.398L1815.64 581.338L1815.64 582.277L1815.64 583.215L1815.64 584.152L1815.64 585.088L1815.64 586.024L1815.64 586.958L1815.64 587.891L1815.64 588.824L1815.64 589.755L1815.64 590.685L1815.64 591.615L1815.64 592.543L1815.64 593.471L1815.64 594.397L1815.64 595.323L1815.64 596.247L1815.64 597.17L1815.64 598.093L1815.64 599.014L1815.64 599.935L1815.64 600.854L1815.64 601.772L1815.64 602.689L1815.64 603.606L1815.64 604.521L1815.64 605.435L1815.64 606.348L1815.64 607.26L1815.64 608.171Z" stroke="#1C2A4D" stroke-width="2"/>
<g filter="url(#filter0_dddddd_289_3134)">
<rect width="1920" height="65" transform="translate(0 -65)" fill="#FFFBF5"/>
</g>
</g>
<defs>
<filter id="filter0_dddddd_289_3134" x="-80" y="-65" width="2080" height="247" filterUnits="userSpaceOnUse" color-interpolation-filters="sRGB">
<feFlood flood-opacity="0" result="BackgroundImageFix"/>
<feColorMatrix in="SourceAlpha" type="matrix" values="0 0 0 0 0 0 0 0 0 0 0 0 0 0 0 0 0 0 127 0" result="hardAlpha"/>
<feOffset dy="3.85185"/>
<feGaussianBlur stdDeviation="1.57407"/>
<feColorMatrix type="matrix" values="0 0 0 0 0 0 0 0 0 0 0 0 0 0 0 0 0 0 0.05 0"/>
<feBlend mode="normal" in2="BackgroundImageFix" result="effect1_dropShadow_289_3134"/>
<feColorMatrix in="SourceAlpha" type="matrix" values="0 0 0 0 0 0 0 0 0 0 0 0 0 0 0 0 0 0 127 0" result="hardAlpha"/>
<feOffset dy="10.1481"/>
<feGaussianBlur stdDeviation="3.25926"/>
<feColorMatrix type="matrix" values="0 0 0 0 0 0 0 0 0 0 0 0 0 0 0 0 0 0 0.037963 0"/>
<feBlend mode="normal" in2="effect1_dropShadow_289_3134" result="effect2_dropShadow_289_3134"/>
<feColorMatrix in="SourceAlpha" type="matrix" values="0 0 0 0 0 0 0 0 0 0 0 0 0 0 0 0 0 0 127 0" result="hardAlpha"/>
<feOffset dy="22"/>
<feGaussianBlur stdDeviation="6.5"/>
<feColorMatrix type="matrix" values="0 0 0 0 0 0 0 0 0 0 0 0 0 0 0 0 0 0 0.0303704 0"/>
<feBlend mode="normal" in2="effect2_dropShadow_289_3134" result="effect3_dropShadow_289_3134"/>
<feColorMatrix in="SourceAlpha" type="matrix" values="0 0 0 0 0 0 0 0 0 0 0 0 0 0 0 0 0 0 127 0" result="hardAlpha"/>
<feOffset dy="40.5185"/>
<feGaussianBlur stdDeviation="12.7407"/>
<feColorMatrix type="matrix" values="0 0 0 0 0 0 0 0 0 0 0 0 0 0 0 0 0 0 0.025 0"/>
<feBlend mode="normal" in2="effect3_dropShadow_289_3134" result="effect4_dropShadow_289_3134"/>
<feColorMatrix in="SourceAlpha" type="matrix" values="0 0 0 0 0 0 0 0 0 0 0 0 0 0 0 0 0 0 127 0" result="hardAlpha"/>
<feOffset dy="66.8148"/>
<feGaussianBlur stdDeviation="23.4259"/>
<feColorMatrix type="matrix" values="0 0 0 0 0 0 0 0 0 0 0 0 0 0 0 0 0 0 0.0196296 0"/>
<feBlend mode="normal" in2="effect4_dropShadow_289_3134" result="effect5_dropShadow_289_3134"/>
<feColorMatrix in="SourceAlpha" type="matrix" values="0 0 0 0 0 0 0 0 0 0 0 0 0 0 0 0 0 0 127 0" result="hardAlpha"/>
<feOffset dy="102"/>
<feGaussianBlur stdDeviation="40"/>
<feColorMatrix type="matrix" values="0 0 0 0 0 0 0 0 0 0 0 0 0 0 0 0 0 0 0.012037 0"/>
<feBlend mode="normal" in2="effect5_dropShadow_289_3134" result="effect6_dropShadow_289_3134"/>
<feBlend mode="normal" in="SourceGraphic" in2="effect6_dropShadow_289_3134" result="shape"/>
</filter>
<clipPath id="clip0_289_3134">
<rect width="1920" height="1218" fill="white" transform="translate(0 -150)"/>
</clipPath>
</defs>
</svg>
